<svg xmlns="http://www.w3.org/2000/svg" xmlns:xlink="http://www.w3.org/1999/xlink" contentStyleType="text/css" data-diagram-type="DESCRIPTION" height="420px" preserveAspectRatio="none" style="width:846px;height:420px;background:#FFFFFF;" version="1.1" viewBox="0 0 846 420" width="846px" zoomAndPan="magnify"><?plantuml 1.2026.6?><defs/><g><!--cluster Diary.App--><g class="cluster" data-qualified-name="Diary.App" data-source-line="3" id="ent0001"><path d="M20.5,6 L99.5938,6 A3.75,3.75 0 0 1 102.0938,8.5 L109.0938,28.2969 L248.5,28.2969 A2.5,2.5 0 0 1 251,30.7969 L251,187.1 A2.5,2.5 0 0 1 248.5,189.6 L20.5,189.6 A2.5,2.5 0 0 1 18,187.1 L18,8.5 A2.5,2.5 0 0 1 20.5,6" fill="none" style="stroke:#000000;stroke-width:1.5;"/><line style="stroke:#000000;stroke-width:1.5;" x1="18" x2="109.0938" y1="28.2969" y2="28.2969"/><text fill="#000000" font-family="sans-serif" font-size="14" font-weight="700" lengthAdjust="spacing" textLength="78.0938" x="22" y="20.9951">Diary.App</text></g><!--cluster Contracts--><g class="cluster" data-qualified-name="Contracts" data-source-line="8" id="ent0005"><path d="M8.5,213.6 L85.7275,213.6 A3.75,3.75 0 0 1 88.2275,216.1 L95.2275,235.8969 L621.5,235.8969 A2.5,2.5 0 0 1 624,238.3969 L624,298.39 A2.5,2.5 0 0 1 621.5,300.89 L8.5,300.89 A2.5,2.5 0 0 1 6,298.39 L6,216.1 A2.5,2.5 0 0 1 8.5,213.6" fill="none" style="stroke:#000000;stroke-width:1.5;"/><line style="stroke:#000000;stroke-width:1.5;" x1="6" x2="95.2275" y1="235.8969" y2="235.8969"/><text fill="#000000" font-family="sans-serif" font-size="14" font-weight="700" lengthAdjust="spacing" textLength="76.2275" x="10" y="228.5951">Contracts</text></g><!--cluster Redmine--><g class="cluster" data-qualified-name="Redmine" data-source-line="14" id="ent0010"><path d="M277.5,6 L347.6455,6 A3.75,3.75 0 0 1 350.1455,8.5 L357.1455,28.2969 L828.5,28.2969 A2.5,2.5 0 0 1 831,30.7969 L831,187.1 A2.5,2.5 0 0 1 828.5,189.6 L277.5,189.6 A2.5,2.5 0 0 1 275,187.1 L275,8.5 A2.5,2.5 0 0 1 277.5,6" fill="none" style="stroke:#000000;stroke-width:1.5;"/><line style="stroke:#000000;stroke-width:1.5;" x1="275" x2="357.1455" y1="28.2969" y2="28.2969"/><text fill="#000000" font-family="sans-serif" font-size="14" font-weight="700" lengthAdjust="spacing" textLength="69.1455" x="279" y="20.9951">Redmine</text></g><!--entity App--><g class="entity" data-qualified-name="Diary.App.App" data-source-line="4" id="ent0002"><rect fill="#F1F1F1" height="36.2969" rx="2.5" ry="2.5" style="stroke:#181818;stroke-width:0.5;" width="47.3506" x="105.32" y="41"/><text fill="#000000" font-family="sans-serif" font-size="14" lengthAdjust="spacing" textLength="27.3506" x="115.32" y="63.9951">App</text></g><!--entity UI--><g class="entity" data-qualified-name="Diary.App.UI" data-source-line="5" id="ent0003"><rect fill="#F1F1F1" height="36.2969" rx="2.5" ry="2.5" style="stroke:#181818;stroke-width:0.5;" width="71.5361" x="34.23" y="137.3"/><text fill="#000000" font-family="sans-serif" font-size="14" lengthAdjust="spacing" textLength="51.5361" x="44.23" y="160.2951">Core UI</text></g><!--entity Host--><g class="entity" data-qualified-name="Diary.App.Host" data-source-line="6" id="ent0004"><rect fill="#F1F1F1" height="36.2969" rx="2.5" ry="2.5" style="stroke:#181818;stroke-width:0.5;" width="94.7305" x="140.63" y="137.3"/><text fill="#000000" font-family="sans-serif" font-size="14" lengthAdjust="spacing" textLength="74.7305" x="150.63" y="160.2951">PluginHost</text></g><!--entity Core--><g class="entity" data-qualified-name="Contracts.Core" data-source-line="9" id="ent0006"><rect fill="#F1F1F1" height="36.2969" rx="2.5" ry="2.5" style="stroke:#181818;stroke-width:0.5;" width="94.4502" x="21.77" y="248.6"/><text fill="#000000" font-family="sans-serif" font-size="14" lengthAdjust="spacing" textLength="74.4502" x="31.77" y="271.5951">Diary.Core</text></g><!--entity DB--><g class="entity" data-qualified-name="Contracts.DB" data-source-line="10" id="ent0007"><rect fill="#F1F1F1" height="36.2969" rx="2.5" ry="2.5" style="stroke:#181818;stroke-width:0.5;" width="128.541" x="305.73" y="248.6"/><text fill="#000000" font-family="sans-serif" font-size="14" lengthAdjust="spacing" textLength="108.541" x="315.73" y="271.5951">Diary.Database</text></g><!--entity PB--><g class="entity" data-qualified-name="Contracts.PB" data-source-line="11" id="ent0008"><rect fill="#F1F1F1" height="36.2969" rx="2.5" ry="2.5" style="stroke:#181818;stroke-width:0.5;" width="138.6855" x="469.66" y="248.6"/><text fill="#000000" font-family="sans-serif" font-size="14" lengthAdjust="spacing" textLength="118.6855" x="479.66" y="271.5951">Diary.PluginBase</text></g><!--entity PUI--><g class="entity" data-qualified-name="Contracts.PUI" data-source-line="12" id="ent0009"><rect fill="#F1F1F1" height="36.2969" rx="2.5" ry="2.5" style="stroke:#181818;stroke-width:0.5;" width="118.9707" x="151.51" y="248.6"/><text fill="#000000" font-family="sans-serif" font-size="14" lengthAdjust="spacing" textLength="98.9707" x="161.51" y="271.5951">Diary.PluginUI</text></g><!--entity RM--><g class="entity" data-qualified-name="Redmine.RM" data-source-line="15" id="ent0011"><rect fill="#F1F1F1" height="36.2969" rx="2.5" ry="2.5" style="stroke:#181818;stroke-width:0.5;" width="122.4229" x="491.79" y="137.3"/><text fill="#000000" font-family="sans-serif" font-size="14" lengthAdjust="spacing" textLength="102.4229" x="501.79" y="160.2951">Diary.RedMine</text></g><!--entity RMUI--><g class="entity" data-qualified-name="Redmine.RMUI" data-source-line="16" id="ent0012"><rect fill="#F1F1F1" height="36.2969" rx="2.5" ry="2.5" style="stroke:#181818;stroke-width:0.5;" width="141.249" x="291.38" y="41"/><text fill="#000000" font-family="sans-serif" font-size="14" lengthAdjust="spacing" textLength="121.249" x="301.38" y="63.9951">Diary.RedMine.UI</text></g><!--entity SQL--><g class="entity" data-qualified-name="Redmine.SQL" data-source-line="17" id="ent0013"><rect fill="#F1F1F1" height="36.2969" rx="2.5" ry="2.5" style="stroke:#181818;stroke-width:0.5;" width="138.6445" x="467.68" y="41"/><text fill="#000000" font-family="sans-serif" font-size="14" lengthAdjust="spacing" textLength="118.6445" x="477.68" y="63.9951">SQLite extension</text></g><!--entity PG--><g class="entity" data-qualified-name="Redmine.PG" data-source-line="18" id="ent0014"><rect fill="#F1F1F1" height="36.2969" rx="2.5" ry="2.5" style="stroke:#181818;stroke-width:0.5;" width="173.6992" x="641.15" y="41"/><text fill="#000000" font-family="sans-serif" font-size="14" lengthAdjust="spacing" textLength="153.6992" x="651.15" y="63.9951">PostgreSQL extension</text></g><!--entity Store--><g class="entity" data-qualified-name="Store" data-source-line="20" id="ent0015"><path d="M289.97,359.89 C289.97,349.89 370.0042,349.89 370.0042,349.89 C370.0042,349.89 450.0384,349.89 450.0384,359.89 L450.0384,385.1869 C450.0384,395.1869 370.0042,395.1869 370.0042,395.1869 C370.0042,395.1869 289.97,395.1869 289.97,385.1869 L289.97,359.89" fill="#F1F1F1" style="stroke:#181818;stroke-width:0.5;"/><path d="M289.97,359.89 C289.97,369.89 370.0042,369.89 370.0042,369.89 C370.0042,369.89 450.0384,369.89 450.0384,359.89" fill="none" style="stroke:#181818;stroke-width:0.5;"/><text fill="#000000" font-family="sans-serif" font-size="14" lengthAdjust="spacing" textLength="140.0684" x="299.97" y="386.8851">SQLite / PostgreSQL</text></g><!--entity API--><g class="entity" data-qualified-name="API" data-source-line="21" id="ent0016"><path d="M651.7527,252.7028 C655.1393,245.9488 660.6121,245.9059 665.2767,251.2773 C669.0814,245.0246 674.9271,244.8902 678.0827,251.9039 C681.3593,244.3677 685.3793,244.112 691.0272,249.5352 C695.9487,243.6557 700.1404,242.8714 704.9575,249.6501 C709.4767,244.0821 713.745,245.7766 716.6247,251.3649 C720.0425,245.8826 725.5632,246.0124 728.8561,251.504 C733.0929,244.9739 737.2262,245.5703 741.6744,251.2827 C745.9639,245.7645 752.4461,245.8634 756.0351,252.136 C764.5779,255.9255 765.8805,263.1423 757.4261,268.3868 C764.0647,273.6462 762.823,279.6385 755.1863,282.6574 C752.1552,289.1758 747.6425,288.6443 743.4273,283.8928 C739.8959,291.4542 735.3164,292.6172 729.6142,286.0089 C726.508,292.2688 722.3772,292.9977 717.8441,287.4286 C715.4362,294.1262 709.0347,296.0296 704.5659,289.4969 C700.2183,294.9904 694.9419,295.8374 691.1609,288.8866 C686.0923,293.9767 680.3728,291.9635 678.1456,285.645 C673.4358,290.4814 669.0832,290.4585 665.4516,284.3899 C661.9073,290.3284 656.1364,290.3722 653.0589,283.923 C642.6473,282.7094 638.7798,277.119 644.1717,267.4035 C639.3296,258.5572 642.1781,254.1145 651.7527,252.7028" fill="#F1F1F1" style="stroke:#181818;stroke-width:0.5;"/><text fill="#000000" font-family="sans-serif" font-size="14" lengthAdjust="spacing" textLength="88.8398" x="658.58" y="271.5951">Redmine API</text></g><!--link App to Host--><g class="link" data-entity-1="ent0002" data-entity-2="ent0004" data-link-type="dependency" data-source-line="22" id="lnk17"><path d="M139.82,77.45 C150.4,94.35 163.7669,115.722 174.3969,132.702" fill="none" id="App-to-Host" style="stroke:#181818;stroke-width:1;"/><polygon fill="#181818" points="177.05,136.94,175.6648,127.189,174.3969,132.702,168.8839,131.4341,177.05,136.94" style="stroke:#181818;stroke-width:1;stroke-linejoin:miter;stroke-miterlimit:10;"/></g><!--link App to UI--><g class="link" data-entity-1="ent0002" data-entity-2="ent0003" data-link-type="dependency" data-source-line="23" id="lnk18"><path d="M118.18,77.45 C107.6,94.35 94.2331,115.722 83.6031,132.702" fill="none" id="App-to-UI" style="stroke:#181818;stroke-width:1;"/><polygon fill="#181818" points="80.95,136.94,89.1161,131.4341,83.6031,132.702,82.3352,127.189,80.95,136.94" style="stroke:#181818;stroke-width:1;stroke-linejoin:miter;stroke-miterlimit:10;"/></g><!--link Host to PB--><g class="link" data-entity-1="ent0004" data-entity-2="ent0008" data-link-type="dependency" data-source-line="24" id="lnk19"><path d="M217.5,174 C233.85,182.79 254.89,192.6 275,197.6 C313.21,207.09 414.69,193.02 452,205.6 C478.28,214.45 500.0455,230.5107 516.5855,244.8807" fill="none" id="Host-to-PB" style="stroke:#181818;stroke-width:1;"/><polygon fill="#181818" points="520.36,248.16,516.1894,239.2378,516.5855,244.8807,510.9426,245.2769,520.36,248.16" style="stroke:#181818;stroke-width:1;stroke-linejoin:miter;stroke-miterlimit:10;"/></g><!--link Host to PUI--><g class="link" data-entity-1="ent0004" data-entity-2="ent0009" data-link-type="dependency" data-source-line="25" id="lnk20"><path d="M191.7,174.01 C195.99,194.4 202.0024,222.9567 206.2824,243.3367" fill="none" id="Host-to-PUI" style="stroke:#181818;stroke-width:1;"/><polygon fill="#181818" points="207.31,248.23,209.3749,238.6,206.2824,243.3367,201.5457,240.2442,207.31,248.23" style="stroke:#181818;stroke-width:1;stroke-linejoin:miter;stroke-miterlimit:10;"/></g><!--link UI to Core--><g class="link" data-entity-1="ent0003" data-entity-2="ent0006" data-link-type="dependency" data-source-line="26" id="lnk21"><path d="M69.84,174.01 C69.65,194.4 69.3966,222.8502 69.2066,243.2302" fill="none" id="UI-to-Core" style="stroke:#181818;stroke-width:1;"/><polygon fill="#181818" points="69.16,248.23,73.2437,239.2677,69.2066,243.2302,65.2441,239.1931,69.16,248.23" style="stroke:#181818;stroke-width:1;stroke-linejoin:miter;stroke-miterlimit:10;"/></g><!--link UI to DB--><g class="link" data-entity-1="ent0003" data-entity-2="ent0007" data-link-type="dependency" data-source-line="27" id="lnk22"><path d="M86.94,173.99 C96.59,182.77 109.45,192.58 123,197.6 C157.43,210.33 253.4,193.33 288,205.6 C313.13,214.5 333.4743,230.4297 348.9443,244.7797" fill="none" id="UI-to-DB" style="stroke:#181818;stroke-width:1;"/><polygon fill="#181818" points="352.61,248.18,348.7319,239.1268,348.9443,244.7797,343.2914,244.992,352.61,248.18" style="stroke:#181818;stroke-width:1;stroke-linejoin:miter;stroke-miterlimit:10;"/></g><!--link RM to PB--><g class="link" data-entity-1="ent0011" data-entity-2="ent0008" data-link-type="dependency" data-source-line="28" id="lnk23"><path d="M550.75,174.01 C548.14,194.4 544.4851,222.8905 541.8751,243.2705" fill="none" id="RM-to-PB" style="stroke:#181818;stroke-width:1;"/><polygon fill="#181818" points="541.24,248.23,546.3509,239.811,541.8751,243.2705,538.4157,238.7948,541.24,248.23" style="stroke:#181818;stroke-width:1;stroke-linejoin:miter;stroke-miterlimit:10;"/></g><!--link RM to DB--><g class="link" data-entity-1="ent0011" data-entity-2="ent0007" data-link-type="dependency" data-source-line="29" id="lnk24"><path d="M512.8,173.98 C493.92,182.72 471.37,193.91 452,205.6 C430.53,218.55 411.5835,232.5533 395.4635,245.2033" fill="none" id="RM-to-DB" style="stroke:#181818;stroke-width:1;"/><polygon fill="#181818" points="391.53,248.29,401.0796,245.8806,395.4635,245.2033,396.1408,239.5871,391.53,248.29" style="stroke:#181818;stroke-width:1;stroke-linejoin:miter;stroke-miterlimit:10;"/></g><!--link RMUI to PUI--><g class="link" data-entity-1="ent0012" data-entity-2="ent0009" data-link-type="dependency" data-source-line="30" id="lnk25"><path d="M349.13,77.68 C320.6,116.52 255.3,205.4303 226.8,244.2303" fill="none" id="RMUI-to-PUI" style="stroke:#181818;stroke-width:1;"/><polygon fill="#181818" points="223.84,248.26,232.3917,243.3745,226.8,244.2303,225.9442,238.6385,223.84,248.26" style="stroke:#181818;stroke-width:1;stroke-linejoin:miter;stroke-miterlimit:10;"/></g><!--link RMUI to RM--><g class="link" data-entity-1="ent0012" data-entity-2="ent0011" data-link-type="dependency" data-source-line="31" id="lnk26"><path d="M397.48,77.67 C431.68,94.55 478.6567,117.7465 512.9067,134.6565" fill="none" id="RMUI-to-RM" style="stroke:#181818;stroke-width:1;"/><polygon fill="#181818" points="517.39,136.87,511.0908,129.299,512.9067,134.6565,507.5492,136.4723,517.39,136.87" style="stroke:#181818;stroke-width:1;stroke-linejoin:miter;stroke-miterlimit:10;"/></g><!--link SQL to DB--><g class="link" data-entity-1="ent0013" data-entity-2="ent0007" data-link-type="dependency" data-source-line="32" id="lnk27"><path d="M494,77.71 C467.3,90.6 434.14,110.54 413,137.3 C386.47,170.88 376.6533,216.6826 372.7733,243.2226" fill="none" id="SQL-to-DB" style="stroke:#181818;stroke-width:1;"/><polygon fill="#181818" points="372.05,248.17,377.3098,239.8433,372.7733,243.2226,369.394,238.686,372.05,248.17" style="stroke:#181818;stroke-width:1;stroke-linejoin:miter;stroke-miterlimit:10;"/></g><!--link PG to DB--><g class="link" data-entity-1="ent0014" data-entity-2="ent0007" data-link-type="dependency" data-source-line="33" id="lnk28"><path d="M652.87,77.77 C589.1,93.67 503.39,117.51 474,137.3 C451.15,152.68 406.9636,213.1553 384.8536,244.4753" fill="none" id="PG-to-DB" style="stroke:#181818;stroke-width:1;"/><polygon fill="#181818" points="381.97,248.56,390.4282,243.5143,384.8536,244.4753,383.8926,238.9006,381.97,248.56" style="stroke:#181818;stroke-width:1;stroke-linejoin:miter;stroke-miterlimit:10;"/></g><!--link DB to Store--><g class="link" data-entity-1="ent0007" data-entity-2="ent0015" data-link-type="dependency" data-source-line="34" id="lnk29"><path d="M370,285.35 C370,303.05 370,325.38 370,344.51" fill="none" id="DB-to-Store" style="stroke:#181818;stroke-width:1;"/><polygon fill="#181818" points="370,349.51,374,340.51,370,344.51,366,340.51,370,349.51" style="stroke:#181818;stroke-width:1;stroke-linejoin:miter;stroke-miterlimit:10;"/></g><!--link RM to API--><g class="link" data-entity-1="ent0011" data-entity-2="ent0016" data-link-type="dependency" data-source-line="35" id="lnk30"><path d="M578.83,173.91 C592.38,183.18 609.2,194.85 624,205.6 C640.74,217.75 655.1785,228.6794 670.0085,240.0994" fill="none" id="RM-to-API" style="stroke:#181818;stroke-width:1;"/><polygon fill="#181818" points="673.97,243.15,669.2797,234.4897,670.0085,240.0994,664.3987,240.8281,673.97,243.15" style="stroke:#181818;stroke-width:1;stroke-linejoin:miter;stroke-miterlimit:10;"/></g><?plantuml-src PL31JiCm3BttAwpUD_u0QLsbKObAeLDFY8DfJOdM9bMJ2IR4l-EuwGhibEVtdETdkvCs8quuG6E7qHeo_kWlFS54ZKVJzPIuQujxnzP-QDF16_QEaX6R4tO4QQvnkcntuvZ2LmBmpEW5q06_eTpRYQ0kXAgBmAZ-t6dpO9qNCe3aU_NRM-CdRBoBVhD_i97s05OwHu-lw6OfprPX7f8jahgHOYJ5cNuDhwWTjA4_evahcPFsghpXjz6fAkVrZa-FsXFGfoVZj3KYCYchywxTH5pzqzM1KxHn6KYZnnsi7rAnyM7xfhVdzfeLTgeGaT-4ZmwRpVryrANWNA4Mp8TOCGjr8L2k6Z6ViIgNveY4YthuTYtu866RsACE2yepGNFWQC81Vm00?></g></svg>